<svg width="191" height="242" viewBox="0 0 191 242" fill="none" xmlns="http://www.w3.org/2000/svg">
<path fill-rule="evenodd" clip-rule="evenodd" d="M6.63562 9.74684C3.83784 8.36088 0.108087 9.96829 1.66397 13.6322C3.33059 17.5557 9.49256 17.6042 12.9726 17.5264C12.6243 17.5082 11.5027 13.9103 11.1187 13.3666C9.98625 11.7628 8.35564 10.6004 6.63562 9.74684ZM38.8712 80.0912C39.5771 80.6941 38.9286 80.1477 38.8712 80.0912V80.0912ZM3.94044 27.4929C2.30319 28.7433 2.22509 30.9508 3.56252 32.445C5.15507 34.2239 8.06304 34.1591 10.2337 33.9858C11.2157 33.9073 16.4586 33.4879 15.2159 32.6308C15.3115 32.6668 15.5111 32.7544 15.7248 32.8734C15.8397 33.2931 15.9605 33.7113 16.0863 34.1277C16.0555 34.1457 16.0292 34.165 15.9962 34.1829C16.0319 34.1673 16.057 34.1504 16.0884 34.1346C17.3492 38.2962 19.1439 42.2587 21.4939 45.9658C20.6147 45.62 19.704 45.3581 18.7804 45.2416C16.0452 44.896 10.2912 47.0195 13.3507 50.6577C16.2844 54.1456 20.8516 50.4037 24.181 49.8877C27.4105 54.3904 30.9711 58.7056 34.7026 62.8767C34.474 62.9482 34.2733 63.0973 34.1583 63.3293C32.6613 62.5706 31.1014 61.4852 29.716 61.1914C27.7168 60.7679 23.6173 60.5112 22.1063 62.2989C20.2478 64.4971 22.24 66.2826 24.4357 66.7042C27.6195 67.3157 31.7873 65.7616 34.8508 64.7116C35.2012 64.7735 35.5838 64.6711 35.8123 64.3911C35.88 64.3689 35.9477 64.3471 36.0136 64.326C39.7924 68.4766 43.7158 72.4903 47.6153 76.416C47.5738 76.4138 47.5323 76.4113 47.489 76.409C46.4718 75.7425 45.3807 75.1957 44.198 74.9092C41.4622 74.2431 38.2433 74.2398 36.0231 76.2174C33.8116 78.1865 33.0282 81.6304 35.3161 83.8415C39.8957 88.2675 46.643 78.1758 48.953 77.7546C52.9158 81.7021 57.106 85.3903 61.3621 89.0041C60.8788 88.8571 60.3831 88.7491 59.8707 88.7005C55.6973 88.3013 45.9013 93.4129 51.0232 98.442C55.4866 102.824 60.6526 94.3894 64.2495 91.4394C68.2601 94.8076 72.2926 98.1528 76.2118 101.628C74.0742 101.061 72.0084 100.978 69.717 101.669C67.3459 102.386 63.5199 104.175 65.0188 107.373C66.5433 110.625 71.1377 109.145 73.5307 108.113C74.8358 107.55 77.4526 105.649 79.7502 104.848C86.0042 110.747 91.4212 117.244 95.5223 124.897C98.0826 129.676 100.025 134.781 101.393 140.029C102.266 143.378 103.986 149.003 103.641 153.362C105.283 144.637 102.315 134.157 99.1184 126.358C96.1791 119.186 91.7802 112.89 86.6278 107.223C87.9207 103.338 98.8039 97.7343 92.2978 94.1247C88.8429 92.2162 85.3043 95.383 84.5491 98.737C84.0304 101.042 84.8207 103.938 85.6594 106.175C84.0385 104.447 82.3536 102.775 80.6173 101.159C78.2178 98.9245 75.7608 96.7552 73.2803 94.6133C77.3678 90.777 81.2362 79.81 75.7557 78.0164C67.6627 75.3753 71.5595 90.3347 72.124 93.1385C72.2843 93.148 72.4093 93.0995 72.5012 92.9958C72.4557 93.2526 72.4029 93.5272 72.3389 93.804C67.5913 89.7258 62.7733 85.7277 58.114 81.552C58.5338 81.2421 59.2012 80.0577 59.7256 79.4273C60.9093 78.0061 62.0418 76.5216 62.8695 74.8591C64.1769 72.2319 65.4378 68.0414 61.9721 66.496C58.203 64.8124 56.4118 69.552 56.3856 72.3794C56.3677 74.3349 56.9007 76.1925 57.1784 78.1092C57.2652 78.707 56.931 81.4016 57.7461 80.2424C57.7077 80.6698 57.7021 80.9793 57.7212 81.1988C56.8847 80.4454 56.0547 79.6838 55.2299 78.9167C55.2681 78.8198 55.2964 78.7142 55.3028 78.5918C55.3471 77.7488 54.498 77.4242 53.9026 77.6711C52.8143 76.6378 51.7366 75.5916 50.6781 74.5246C48.4348 72.2641 46.1589 69.939 43.8988 67.5644C44.3891 67.1435 44.1941 66.5608 44.6527 66.114C45.1105 65.6682 46.0123 65.4216 46.5507 65.0076C47.9048 63.9655 49.0277 62.4473 49.8398 60.9532C51.1805 58.4844 52.9132 53.3055 48.9965 52.1289C44.9594 50.9141 42.9102 55.8994 42.6506 59.0162C42.6001 59.62 43.0527 65.0607 43.3991 67.0364C39.217 62.6233 35.1038 58.0446 31.3772 53.3863C32.5071 53.3758 35.7105 51.0631 36.3582 50.432C37.9383 48.8928 40.4502 45.4916 37.6799 43.6918C35.2167 42.0954 32.1805 44.4076 31.1272 46.6548C30.9541 47.0248 30.3436 50.4687 30.296 52.014C28.7536 50.0385 27.2823 48.0515 25.9134 46.058C25.0005 44.7327 24.1474 43.3723 23.3492 41.9831C23.5414 41.8743 23.7222 41.6846 23.8929 41.4487C28.0011 40.7521 33.2387 34.3486 28.4133 32.1206C26.1158 31.0612 23.6242 33.248 22.4988 35.0384C22.2682 35.4047 21.8948 37.2463 21.5908 38.6989C19.2946 34.0965 17.5398 29.224 16.2043 24.2282C16.5619 24.1395 16.8648 23.8666 16.9047 23.3972C18.8992 22.2612 20.4743 21.3153 21.8666 19.1309C22.7316 17.7741 24.2894 14.6742 21.7478 13.9211C18.4402 12.9412 16.3626 17.9882 16.092 20.4741C16.0605 20.7626 16.0616 21.6019 16.0725 22.3709C15.9577 22.3553 15.8416 22.3571 15.7278 22.3772C14.9681 19.2837 14.3618 16.1505 13.8796 13.0119C15.6848 12.4315 15.997 2.95984 14.795 1.61119C12.1083 -1.4086 10.2128 2.95363 10.3562 5.25916C10.5257 7.9776 11.7587 10.4505 13.227 12.6451C13.3845 12.8775 13.3396 12.8662 13.3804 12.5425C13.403 12.7025 13.4566 12.8206 13.5361 12.9062C13.4603 14.3371 13.3126 15.8021 13.3835 17.0684C13.5868 20.6945 14.0097 24.3418 14.6235 27.9213C14.7729 28.7918 14.9439 29.6553 15.1356 30.5113C13.6846 29.2763 11.7282 28.1791 10.9627 27.836C8.97586 26.9463 5.91389 25.9857 3.94044 27.4929ZM103.874 153.375C103.782 154.639 103.554 155.797 103.127 156.752C103.447 155.665 103.693 154.535 103.874 153.375Z" fill="#F2F2F2"/>
<g opacity="0.7">
<path opacity="0.7" fill-rule="evenodd" clip-rule="evenodd" d="M59.9939 106.545C67.7642 106.142 77.3739 110.673 78.2029 119.111C78.8051 125.242 78.6186 131.355 79.5505 137.477C80.2957 142.37 81.8718 147.066 84.0213 151.523C86.0883 155.808 90.3759 159.456 91.491 164.035C92.2018 166.952 91.8039 171.055 90.8237 173.909C89.6317 177.378 90.2653 177.104 92.6404 180.015C97.2946 185.72 101.485 191.57 104.449 198.384C108.718 208.198 111.517 219.669 109.932 230.411C109.731 231.776 109.492 236.671 107.611 237.013C105.511 237.396 106.493 234.596 106.605 233.692C107.32 227.921 107.955 222.877 107.093 217.016C103.767 194.403 87.5288 179.504 76.9554 160.311C76.3741 159.322 75.147 156.965 74.2938 155.41C72.9469 152.955 71.5927 148.284 69.7693 146.464C66.3351 143.035 69.4923 149.929 70.1615 151.245C71.0075 152.909 71.9383 154.679 72.8053 156.137C76.7723 162.899 81.2003 170.28 85.2974 177.25C67.5778 181.283 55.0986 160.001 50.3434 146.01C46.4256 134.482 41.738 107.531 59.9939 106.545Z" fill="#69A1AC"/>
<path opacity="0.7" fill-rule="evenodd" clip-rule="evenodd" d="M164.139 85.138C151.15 86.1676 142.811 94.7305 138.929 106.707C136.837 113.161 136.597 119.792 135.434 126.425C133.685 136.404 129.922 143.966 122.568 151.076C120.29 153.278 118.611 155.539 117.418 157.957C115.049 160.372 112.987 163.105 111.472 166.446C109.537 170.713 108.989 175.832 111.224 180.086C111.824 181.23 113.323 183.525 114.876 184.568C109.061 196.941 105.864 210.491 106.224 224.025C106.442 232.194 106.841 240.367 107.307 248.526C107.432 250.717 108.146 254.335 109.219 250.661C110.201 247.3 108.97 242.024 108.856 238.513C108.301 221.409 107.828 205.858 114.875 189.878C115.614 188.203 116.398 186.542 117.214 184.894C117.262 184.866 117.306 184.833 117.351 184.8C117.382 184.824 117.411 184.85 117.442 184.873C117.494 184.78 117.565 184.67 117.648 184.546C117.883 184.305 118.087 184 118.281 183.66C118.906 182.794 119.614 181.778 119.618 181.221C119.618 181.217 119.615 181.21 119.615 181.206C123.978 174.091 128.975 167.368 134.08 160.777C134.041 160.825 139.616 153.242 138.754 157.435C138.339 159.456 134.238 163.305 132.582 165.445C128.918 170.207 124.616 176.241 121.041 182.076C120.56 182.353 119.88 183.709 119.389 184.719C119.117 185.23 118.864 185.746 118.615 186.196C131.283 190.377 141.137 181.955 147.856 172.159C147.864 172.147 147.871 172.135 147.879 172.124C149.924 169.417 152.018 166.729 154.635 164.59C159.001 161.019 163.676 160.39 168.824 158.632C182.861 153.841 188.829 135.666 190.725 122.181C192.863 106.967 182.403 83.6379 164.139 85.138Z" fill="#89C5CC"/>
<path opacity="0.7" fill-rule="evenodd" clip-rule="evenodd" d="M138.48 42.5331C125.148 56.3947 118.708 75.621 113.608 93.6956C107.911 113.883 104.149 134.382 104.005 155.371C103.91 169.161 103.535 183.037 104.34 196.811C104.626 201.702 105.114 206.603 105.89 211.442C105.954 211.839 107.691 222.644 109.352 220.127C110.297 218.695 107.572 208.918 107.366 207.29C106.208 198.118 105.939 188.879 105.995 179.64C106.088 164.43 105.639 149.298 107.182 134.144C107.413 131.881 107.595 129.505 108.133 127.292C108.704 124.938 107.976 125.966 109.837 125.034C111.645 124.128 113.879 124.258 115.754 123.121C123.195 118.614 127.001 107.037 129.963 99.4405C133.351 90.7537 135.41 81.4905 137.055 72.3488C138.263 65.6322 139.126 58.9565 139.615 52.1534C139.769 50.0093 139.778 47.7672 140.2 45.6589C140.313 45.0903 140.883 44.0842 140.863 43.5806C140.819 42.5148 140.175 41.8879 140.122 40.9923C139.564 41.494 139.016 42.008 138.48 42.5331Z" fill="#89C5CC"/>
<path opacity="0.7" fill-rule="evenodd" clip-rule="evenodd" d="M110.668 227.349H108.473C108.625 224.597 108.826 221.851 109.287 219.13C111.048 208.723 116.555 193.438 128.632 191.749C129.078 191.686 130.717 191.675 132.702 191.791C133.643 191.266 134.697 190.948 135.808 190.875C146.091 190.118 157.574 198.406 162.534 207.03C166.533 213.984 165.859 223.115 163.39 230.502C161.736 235.448 158.126 242.5 152.107 242.568C144.576 242.654 144.213 233.356 144.067 227.92C143.873 220.693 142.959 214.397 137.259 209.471C135.931 208.323 134.478 207.314 133.136 206.182C131.035 204.411 128.713 202.597 128.442 199.667C128.069 195.624 130.353 194.896 133.841 195.647C134.435 195.775 140.424 198.46 139.538 196.338C139.267 195.69 138.278 195.176 137.03 194.791C133.8 194.44 129.949 194.033 128.841 194.276C116.892 196.895 112.239 213.432 111.004 223.938C110.87 225.072 110.762 226.21 110.668 227.349Z" fill="#69A1AC"/>
</g>
<path opacity="0.2" fill-rule="evenodd" clip-rule="evenodd" d="M83.0591 20.8453C84.5467 20.1342 86.5297 20.9589 85.7025 22.8387C84.8164 24.8516 81.5401 24.8765 79.6898 24.8366C79.875 24.8272 80.4714 22.9813 80.6755 22.7024C81.2776 21.8795 82.1446 21.2832 83.0591 20.8453ZM65.9312 57.5228C65.4057 57.9558 65.8884 57.5634 65.9312 57.5228V57.5228ZM84.788 30.1911C85.6775 30.8401 85.7193 31.9866 84.9921 32.7631C84.126 33.6874 82.5456 33.6545 81.3659 33.5651C80.8323 33.5246 77.9829 33.3081 78.6585 32.8626C78.6066 32.8814 78.498 32.9269 78.3819 32.9888C78.3193 33.2068 78.2536 33.424 78.1851 33.6403C78.2018 33.6497 78.2161 33.6597 78.234 33.669C78.2146 33.6609 78.201 33.6521 78.1839 33.6439C77.4975 35.8057 76.521 37.8642 75.2428 39.7902C75.7207 39.6104 76.2158 39.4741 76.7178 39.4134C78.2044 39.2331 81.3311 40.3345 79.6672 42.225C78.0719 44.0372 75.5907 42.095 73.7813 41.8279C72.0249 44.1674 70.0885 46.4095 68.0594 48.5769C68.1836 48.614 68.2926 48.6913 68.3551 48.8118C69.1689 48.4174 70.017 47.8532 70.77 47.7002C71.8567 47.4798 74.0848 47.3454 74.9055 48.2735C75.9149 49.4147 74.8317 50.3426 73.6383 50.5621C71.9077 50.8805 69.643 50.0745 67.9783 49.53C67.7878 49.5622 67.58 49.5091 67.4558 49.3637C67.419 49.3522 67.3823 49.3409 67.3465 49.33C65.2916 51.4867 63.1582 53.5724 61.0377 55.6123C61.0603 55.6112 61.0829 55.6099 61.1064 55.6087C61.6594 55.2623 62.2525 54.9779 62.8954 54.8289C64.3825 54.4821 66.1319 54.4796 67.338 55.5061C68.5394 56.5283 68.9642 58.3167 67.7202 59.4657C65.23 61.7657 61.5657 56.5261 60.3103 56.3079C58.1555 58.3593 55.8771 60.2759 53.563 62.154C53.8257 62.0775 54.0952 62.0213 54.3736 61.9959C56.642 61.7875 61.9646 64.4397 59.1795 67.0531C56.7525 69.3304 53.9471 64.9508 51.993 63.4196C49.8124 65.1701 47.6199 66.9085 45.4889 68.7147C46.6508 68.4196 47.7735 68.3757 49.0187 68.7343C50.3072 69.106 52.3861 70.0339 51.5706 71.6954C50.7411 73.385 48.2445 72.6176 46.9443 72.0819C46.2351 71.7898 44.8134 70.8032 43.5649 70.388C40.1643 73.4533 37.2184 76.8291 34.9874 80.8053C33.5946 83.2879 32.5373 85.94 31.7926 88.6657C31.3172 90.4055 30.3809 93.3275 30.5669 95.5915C29.6773 91.0601 31.293 85.6164 33.0325 81.5647C34.632 77.8391 37.0245 74.568 39.8264 71.6232C39.1247 69.6057 33.2114 66.6982 36.7484 64.8218C38.6266 63.8296 40.5489 65.4734 40.9584 67.2152C41.2397 68.4121 40.8094 69.9164 40.3529 71.0785C41.2343 70.1808 42.1506 69.3119 43.0947 68.4719C44.3994 67.3109 45.7353 66.1836 47.0841 65.0704C44.8636 63.079 42.7642 57.384 45.7433 56.451C50.1425 55.0772 48.0205 62.8478 47.7129 64.3042C47.6257 64.3091 47.5579 64.284 47.5079 64.2302C47.5326 64.3635 47.5612 64.5061 47.5959 64.6499C50.1773 62.5305 52.797 60.4527 55.3304 58.2827C55.1023 58.1218 54.7399 57.5068 54.4551 57.1796C53.8121 56.4418 53.197 55.6711 52.7477 54.8078C52.0378 53.4436 51.3537 51.2675 53.2377 50.4639C55.2866 49.5885 56.2588 52.0497 56.2723 53.5182C56.2815 54.5338 55.9912 55.4987 55.8398 56.4943C55.7925 56.8048 55.9734 58.2042 55.5307 57.6024C55.5514 57.8244 55.5544 57.9851 55.5439 58.0991C55.9988 57.7076 56.4501 57.3118 56.8986 56.9132C56.8778 56.8629 56.8625 56.808 56.859 56.7444C56.8352 56.3067 57.2967 56.1378 57.6203 56.2659C58.2121 55.729 58.7981 55.1853 59.3736 54.6308C60.5935 53.4561 61.8311 52.2479 63.0601 51.014C62.7937 50.7956 62.8998 50.4928 62.6507 50.2609C62.402 50.0295 61.912 49.9017 61.6195 49.6868C60.8838 49.1459 60.274 48.3577 59.833 47.5819C59.105 46.3 58.1648 43.6107 60.2938 42.9985C62.4882 42.3665 63.6005 44.9552 63.7408 46.574C63.7681 46.8875 63.5206 49.7135 63.3318 50.7396C65.6059 48.4465 67.8427 46.0673 69.8693 43.6469C69.2552 43.6418 67.5148 42.4414 67.163 42.1138C66.3046 41.3148 64.9404 39.549 66.4465 38.6135C67.7857 37.7837 69.4352 38.9838 70.007 40.1506C70.101 40.3427 70.4319 42.1313 70.4573 42.9339C71.2961 41.9074 72.0963 40.875 72.8409 39.8393C73.3374 39.1507 73.8014 38.444 74.2356 37.7222C74.1312 37.6657 74.033 37.5672 73.9402 37.4448C71.7077 37.0841 68.8628 33.7596 71.486 32.6012C72.735 32.0503 74.0885 33.1855 74.6997 34.1151C74.8249 34.3052 75.0273 35.2616 75.1921 36.016C76.4414 33.625 77.3964 31.0939 78.1237 28.4988C77.9293 28.4528 77.7648 28.3112 77.7432 28.0673C76.6595 27.4779 75.8038 26.987 75.0477 25.8528C74.5779 25.1484 73.7321 23.5388 75.1137 23.147C76.9116 22.6372 78.0393 25.2579 78.1857 26.5489C78.2028 26.6988 78.2019 27.1347 78.1958 27.5341C78.2582 27.526 78.3213 27.5269 78.3831 27.5373C78.7969 25.9304 79.1273 24.3029 79.3902 22.6727C78.4092 22.3717 78.2422 17.4524 78.8958 16.7516C80.3569 15.1825 81.3858 17.4476 81.3072 18.6451C81.2144 20.0571 80.5436 21.3417 79.745 22.482C79.6593 22.6027 79.6837 22.5969 79.6616 22.4287C79.6493 22.5118 79.6202 22.5732 79.5769 22.6176C79.6177 23.3608 79.6976 24.1217 79.6587 24.7794C79.5472 26.6628 79.3164 28.5572 78.9818 30.4165C78.9004 30.8686 78.8072 31.3172 78.7027 31.7618C79.4917 31.12 80.5553 30.5496 80.9714 30.3712C82.0515 29.9086 83.7159 29.4089 84.788 30.1911ZM30.3902 95.4127C30.4423 96.0179 30.5971 96.5702 30.9019 97.0227C30.6782 96.5055 30.5104 95.9668 30.3902 95.4127Z" fill="#C1DEE2"/>
<g opacity="0.5">
<path opacity="0.5" fill-rule="evenodd" clip-rule="evenodd" d="M69.5054 82.5136C71.2857 80.0664 74.5895 73.8515 77.0953 72.977C78.7093 72.4138 78.2387 78.2399 78.2587 79.3508C78.3363 83.6487 77.9022 87.9194 77.3662 92.1812C76.4005 99.8675 73.2429 106.713 68.9119 113.254C66.6832 116.621 64.0692 120.027 60.4487 122.128C58.7822 123.095 56.7769 123.257 55.1311 124.09C53.2143 125.06 54.2582 124.276 53.3943 126.202C52.1947 128.875 51.811 132.324 51.256 135.176C48.7075 148.271 42.5377 217.491 43.6073 230.81C43.7023 231.991 41.9947 232.273 41.9094 230.832C41.4563 223.19 45.3771 170.27 47.3552 152.964C49.3333 135.658 51.3351 120.368 53.3422 114.381C55.7772 107.117 60.1749 98.3814 63.8357 91.6074C65.5361 88.4603 67.3895 85.4217 69.5054 82.5136Z" fill="#69A1AC"/>
<path opacity="0.5" fill-rule="evenodd" clip-rule="evenodd" d="M82.7195 167.393C87.3522 164.115 92.3667 170.302 88.1746 173.582C85.8571 175.394 83.4343 174.749 82.0704 173.239C81.1849 174.279 80.3562 175.367 79.5599 176.286C77.1337 179.086 74.8406 181.953 72.6491 184.887C68.0965 190.981 64.1951 197.42 60.1158 203.741C56.0902 209.98 52.0967 216.251 48.4478 222.647C45.3568 228.067 41.2368 234.442 40.1785 240.384C41.7842 227.783 47.8771 215.672 55.1327 204.563C62.3292 193.546 70.5881 181.514 81.7311 172.819C80.597 171.212 80.5655 168.917 82.7195 167.393Z" fill="#C1DEE2"/>
<path opacity="0.5" fill-rule="evenodd" clip-rule="evenodd" d="M-5.18946 136.662C-2.59701 137.151 1.63903 142.804 3.77599 144.958C6.31561 147.518 8.61969 150.246 10.7915 153.105C15.4671 159.258 19.6486 165.8 23.2043 172.622C29.0009 183.743 33.6448 195.159 37.0151 207.27C39.0782 214.683 40.4139 222.366 41.2056 229.996C41.3551 231.435 42.9201 242.529 40.665 242.828C38.6368 243.097 39.2633 234.404 39.1654 233.222C38.0594 219.881 34.7461 206.901 30.1372 194.327C29.1334 191.588 28.2007 188.233 26.5953 185.768C25.4392 183.992 26.587 184.611 24.5553 183.939C22.8107 183.362 20.823 183.503 19.0365 182.796C15.1555 181.262 12.048 178.284 9.32401 175.288C4.03037 169.465 -0.164562 163.166 -2.35121 155.706C-3.5642 151.569 -4.67889 147.408 -5.29747 143.144C-5.45749 142.042 -6.85924 136.347 -5.18946 136.662Z" fill="#69A1AC"/>
<path opacity="0.5" fill-rule="evenodd" clip-rule="evenodd" d="M5.04092 42.601C14.8062 58.9267 22.8308 76.86 28.0124 95.0237C31.1518 106.029 33.3473 117.322 35.5287 128.533C38.9062 145.893 42.101 163.251 43.0097 180.918C43.924 198.689 45.7319 219.184 39.6958 236.3C42.7108 218.923 39.8403 200.427 39.332 182.942C39.0891 174.595 38.3853 166.33 37.462 158.032C36.566 149.982 35.1023 141.971 33.7392 133.984C33.0752 130.095 32.3779 126.211 31.6679 122.33C31.4559 121.172 31.3664 117.735 30.6043 116.944C29.8374 116.148 25.9242 115.823 24.6956 115.239C22.2217 114.062 19.8946 112.39 17.8351 110.624C13.887 107.238 10.4524 102.814 7.74151 98.4527C1.46921 88.3616 -1.03845 76.0468 -0.911702 64.36C-0.887349 62.0909 2.89808 37.6569 1.37779 37.3204C1.46933 37.217 1.55591 37.1103 1.63755 36.9994C2.78854 38.8571 3.918 40.7274 5.04092 42.601Z" fill="#89C5CC"/>
<path opacity="0.5" fill-rule="evenodd" clip-rule="evenodd" d="M110.44 101.481C110.591 101.271 111.572 99.8144 111.078 99.9075C112.083 99.7179 109.695 101.514 112.2 100.412C111.011 101.495 111.697 102.902 111.713 104.359C111.739 106.726 111.328 109.073 110.866 111.388C110.135 115.049 109.047 118.608 107.467 122.012C104.024 129.431 98.1778 136.574 91.2369 141.212C87.8105 143.502 84.4523 144.282 80.5444 145.336C78.076 146.002 77.8803 147.233 76.57 149.542C73.8422 154.352 71.163 159.144 68.7573 164.115C65.8848 170.052 63.0962 175.995 60.4658 182.036C51.6044 202.385 44.392 223.467 40.6043 245.285C40.5116 232.428 43.597 219.186 47.4889 206.931C50.3239 198.002 54.0145 189.395 57.951 180.875C58.9049 178.811 60.3504 176.156 60.7555 173.877C61.0391 172.281 60.1719 170.745 59.7749 169.063C58.227 162.514 58.3378 155.176 59.6971 148.591C61.1957 141.33 65.5299 137.96 72.8616 136.932C75.543 136.555 78.9511 136.693 81.4098 135.591C84.0885 134.391 85.1935 130.446 86.7167 127.914C90.8079 121.111 95.669 114.587 101.251 108.856C102.796 107.269 104.458 105.804 106.222 104.447C107.334 103.591 109.683 102.536 110.44 101.481Z" fill="#89C5CC"/>
</g>
</svg>
